<mxfile host="app.diagrams.net" modified="2023-11-06T08:11:09.227Z" agent="Mozilla/5.0 (Windows NT 10.0; Win64; x64) AppleWebKit/537.36 (KHTML, like Gecko) Chrome/119.0.0.0 Safari/537.36" etag="HD6002tNNK8AVWa6vO02" version="22.0.8" type="device">
  <diagram name="Trang-1" id="ZBs-hgi8F_EKLQwiXdtQ">
    <mxGraphModel dx="880" dy="484" grid="1" gridSize="10" guides="1" tooltips="1" connect="1" arrows="1" fold="1" page="1" pageScale="1" pageWidth="827" pageHeight="1169" math="0" shadow="0">
      <root>
        <mxCell id="0" />
        <mxCell id="1" parent="0" />
        <mxCell id="Yqro8_4ICeRQbpKEbyiG-2" style="edgeStyle=orthogonalEdgeStyle;rounded=0;orthogonalLoop=1;jettySize=auto;html=1;exitX=0.5;exitY=1;exitDx=0;exitDy=0;" edge="1" parent="1" source="Yqro8_4ICeRQbpKEbyiG-1">
          <mxGeometry relative="1" as="geometry">
            <mxPoint x="400" y="180" as="targetPoint" />
          </mxGeometry>
        </mxCell>
        <mxCell id="Yqro8_4ICeRQbpKEbyiG-1" value="&lt;font style=&quot;vertical-align: inherit;&quot;&gt;&lt;font style=&quot;vertical-align: inherit;&quot;&gt;Start&lt;/font&gt;&lt;/font&gt;" style="ellipse;whiteSpace=wrap;html=1;" vertex="1" parent="1">
          <mxGeometry x="340" y="40" width="120" height="80" as="geometry" />
        </mxCell>
        <mxCell id="Yqro8_4ICeRQbpKEbyiG-4" style="edgeStyle=orthogonalEdgeStyle;rounded=0;orthogonalLoop=1;jettySize=auto;html=1;exitX=0.5;exitY=1;exitDx=0;exitDy=0;" edge="1" parent="1" source="Yqro8_4ICeRQbpKEbyiG-3">
          <mxGeometry relative="1" as="geometry">
            <mxPoint x="400" y="290" as="targetPoint" />
          </mxGeometry>
        </mxCell>
        <mxCell id="Yqro8_4ICeRQbpKEbyiG-3" value="a,b,c" style="shape=parallelogram;perimeter=parallelogramPerimeter;whiteSpace=wrap;html=1;fixedSize=1;" vertex="1" parent="1">
          <mxGeometry x="340" y="180" width="120" height="60" as="geometry" />
        </mxCell>
        <mxCell id="Yqro8_4ICeRQbpKEbyiG-10" style="edgeStyle=orthogonalEdgeStyle;rounded=0;orthogonalLoop=1;jettySize=auto;html=1;exitX=0.5;exitY=1;exitDx=0;exitDy=0;" edge="1" parent="1" source="Yqro8_4ICeRQbpKEbyiG-9">
          <mxGeometry relative="1" as="geometry">
            <mxPoint x="400" y="410" as="targetPoint" />
          </mxGeometry>
        </mxCell>
        <mxCell id="Yqro8_4ICeRQbpKEbyiG-18" value="" style="edgeStyle=orthogonalEdgeStyle;rounded=0;orthogonalLoop=1;jettySize=auto;html=1;" edge="1" parent="1" source="Yqro8_4ICeRQbpKEbyiG-9" target="Yqro8_4ICeRQbpKEbyiG-14">
          <mxGeometry relative="1" as="geometry" />
        </mxCell>
        <mxCell id="Yqro8_4ICeRQbpKEbyiG-9" value="Min=a" style="rounded=0;whiteSpace=wrap;html=1;" vertex="1" parent="1">
          <mxGeometry x="340" y="290" width="120" height="60" as="geometry" />
        </mxCell>
        <mxCell id="Yqro8_4ICeRQbpKEbyiG-27" style="edgeStyle=orthogonalEdgeStyle;rounded=0;orthogonalLoop=1;jettySize=auto;html=1;exitX=0.5;exitY=1;exitDx=0;exitDy=0;entryX=0.5;entryY=0;entryDx=0;entryDy=0;" edge="1" parent="1" source="Yqro8_4ICeRQbpKEbyiG-14" target="Yqro8_4ICeRQbpKEbyiG-26">
          <mxGeometry relative="1" as="geometry" />
        </mxCell>
        <mxCell id="Yqro8_4ICeRQbpKEbyiG-38" value="true" style="edgeLabel;html=1;align=center;verticalAlign=middle;resizable=0;points=[];" vertex="1" connectable="0" parent="Yqro8_4ICeRQbpKEbyiG-27">
          <mxGeometry x="-0.275" y="-1" relative="1" as="geometry">
            <mxPoint as="offset" />
          </mxGeometry>
        </mxCell>
        <mxCell id="Yqro8_4ICeRQbpKEbyiG-14" value="a&amp;gt;b" style="rhombus;whiteSpace=wrap;html=1;" vertex="1" parent="1">
          <mxGeometry x="360" y="410" width="80" height="80" as="geometry" />
        </mxCell>
        <mxCell id="Yqro8_4ICeRQbpKEbyiG-28" style="edgeStyle=orthogonalEdgeStyle;rounded=0;orthogonalLoop=1;jettySize=auto;html=1;exitX=0.5;exitY=1;exitDx=0;exitDy=0;" edge="1" parent="1" source="Yqro8_4ICeRQbpKEbyiG-26">
          <mxGeometry relative="1" as="geometry">
            <mxPoint x="400" y="690" as="targetPoint" />
          </mxGeometry>
        </mxCell>
        <mxCell id="Yqro8_4ICeRQbpKEbyiG-26" value="Min=b" style="rounded=0;whiteSpace=wrap;html=1;" vertex="1" parent="1">
          <mxGeometry x="340" y="570" width="120" height="60" as="geometry" />
        </mxCell>
        <mxCell id="Yqro8_4ICeRQbpKEbyiG-30" style="edgeStyle=orthogonalEdgeStyle;rounded=0;orthogonalLoop=1;jettySize=auto;html=1;exitX=0.5;exitY=1;exitDx=0;exitDy=0;" edge="1" parent="1" source="Yqro8_4ICeRQbpKEbyiG-29" target="Yqro8_4ICeRQbpKEbyiG-31">
          <mxGeometry relative="1" as="geometry">
            <mxPoint x="400" y="830" as="targetPoint" />
          </mxGeometry>
        </mxCell>
        <mxCell id="Yqro8_4ICeRQbpKEbyiG-39" value="true" style="edgeLabel;html=1;align=center;verticalAlign=middle;resizable=0;points=[];" vertex="1" connectable="0" parent="Yqro8_4ICeRQbpKEbyiG-30">
          <mxGeometry x="-0.1667" relative="1" as="geometry">
            <mxPoint as="offset" />
          </mxGeometry>
        </mxCell>
        <mxCell id="Yqro8_4ICeRQbpKEbyiG-29" value="b&amp;gt;c" style="rhombus;whiteSpace=wrap;html=1;" vertex="1" parent="1">
          <mxGeometry x="360" y="690" width="80" height="80" as="geometry" />
        </mxCell>
        <mxCell id="Yqro8_4ICeRQbpKEbyiG-32" style="edgeStyle=orthogonalEdgeStyle;rounded=0;orthogonalLoop=1;jettySize=auto;html=1;exitX=0.5;exitY=1;exitDx=0;exitDy=0;" edge="1" parent="1" source="Yqro8_4ICeRQbpKEbyiG-31">
          <mxGeometry relative="1" as="geometry">
            <mxPoint x="400" y="950" as="targetPoint" />
          </mxGeometry>
        </mxCell>
        <mxCell id="Yqro8_4ICeRQbpKEbyiG-31" value="Min=c" style="rounded=0;whiteSpace=wrap;html=1;" vertex="1" parent="1">
          <mxGeometry x="340" y="830" width="120" height="60" as="geometry" />
        </mxCell>
        <mxCell id="Yqro8_4ICeRQbpKEbyiG-34" style="edgeStyle=orthogonalEdgeStyle;rounded=0;orthogonalLoop=1;jettySize=auto;html=1;exitX=0.5;exitY=1;exitDx=0;exitDy=0;" edge="1" parent="1" source="Yqro8_4ICeRQbpKEbyiG-33" target="Yqro8_4ICeRQbpKEbyiG-35">
          <mxGeometry relative="1" as="geometry">
            <mxPoint x="400" y="1070" as="targetPoint" />
          </mxGeometry>
        </mxCell>
        <mxCell id="Yqro8_4ICeRQbpKEbyiG-33" value="c" style="shape=parallelogram;perimeter=parallelogramPerimeter;whiteSpace=wrap;html=1;fixedSize=1;" vertex="1" parent="1">
          <mxGeometry x="340" y="950" width="120" height="60" as="geometry" />
        </mxCell>
        <mxCell id="Yqro8_4ICeRQbpKEbyiG-35" value="END" style="ellipse;whiteSpace=wrap;html=1;" vertex="1" parent="1">
          <mxGeometry x="340" y="1060" width="120" height="80" as="geometry" />
        </mxCell>
      </root>
    </mxGraphModel>
  </diagram>
</mxfile>
